<svg xmlns="http://www.w3.org/2000/svg" xmlns:xlink="http://www.w3.org/1999/xlink" width="1080" zoomAndPan="magnify" viewBox="0 0 810 809.999993" height="1080" preserveAspectRatio="xMidYMid meet" version="1.0"><defs><clipPath id="221f9115de"><path d="M 81 65.1875 L 739.847656 65.1875 L 739.847656 744 L 81 744 Z M 81 65.1875 " clip-rule="nonzero"/></clipPath><clipPath id="fe766e9508"><path d="M 119.25 65.1875 L 701.597656 65.1875 C 711.742188 65.1875 721.472656 69.21875 728.644531 76.390625 C 735.816406 83.566406 739.847656 93.292969 739.847656 103.4375 L 739.847656 705.214844 C 739.847656 715.359375 735.816406 725.085938 728.644531 732.261719 C 721.472656 739.433594 711.742188 743.464844 701.597656 743.464844 L 119.25 743.464844 C 109.105469 743.464844 99.375 739.433594 92.203125 732.261719 C 85.03125 725.085938 81 715.359375 81 705.214844 L 81 103.4375 C 81 93.292969 85.03125 83.566406 92.203125 76.390625 C 99.375 69.21875 109.105469 65.1875 119.25 65.1875 Z M 119.25 65.1875 " clip-rule="nonzero"/></clipPath></defs><g clip-path="url(#221f9115de)"><g clip-path="url(#fe766e9508)"><path fill="#ff3131" d="M 81 65.1875 L 739.847656 65.1875 L 739.847656 744.625 L 81 744.625 Z M 81 65.1875 " fill-opacity="1" fill-rule="nonzero"/></g></g></svg>